<svg width="144" height="110" viewBox="0 0 144 110" fill="none" xmlns="http://www.w3.org/2000/svg">
<path d="M26.1687 108.525V101.332C26.2119 100.727 26.1218 100.12 25.9045 99.5512C25.6871 98.9827 25.3475 98.4657 24.9082 98.0347C24.469 97.6036 23.9402 97.2684 23.357 97.0513C22.7739 96.8343 22.1498 96.7404 21.5264 96.7759C20.7103 96.724 19.8949 96.8857 19.1651 97.2442C18.4354 97.6027 17.8182 98.1448 17.3779 98.814C16.9765 98.1649 16.4023 97.633 15.7156 97.2743C15.0289 96.9156 14.2553 96.7434 13.4763 96.7759C12.7973 96.7426 12.1211 96.8821 11.5147 97.1808C10.9083 97.4794 10.3928 97.9267 10.0193 98.4783V97.0636H7.45117V108.525H10.044V102.219C9.98882 101.827 10.0235 101.428 10.1456 101.051C10.2677 100.673 10.4741 100.327 10.7501 100.036C11.0261 99.7448 11.3649 99.5166 11.7423 99.3676C12.1197 99.2186 12.5263 99.1524 12.9331 99.1737C14.6369 99.1737 15.5012 100.253 15.5012 102.195V108.573H18.094V102.219C18.0411 101.827 18.0774 101.429 18.2003 101.053C18.3232 100.676 18.5297 100.331 18.8053 100.04C19.0808 99.7498 19.4187 99.5217 19.795 99.372C20.1713 99.2222 20.5769 99.1545 20.9831 99.1737C22.7363 99.1737 23.5759 100.253 23.5759 102.195V108.573L26.1687 108.525ZM64.5298 97.0636H60.3072V93.5869H57.7144V97.0636H55.3686V99.3415H57.7638V104.617C57.7638 107.278 58.8256 108.861 61.8629 108.861C62.9976 108.864 64.1104 108.557 65.073 107.973L64.3322 105.839C63.6436 106.238 62.8619 106.461 62.0605 106.487C60.8258 106.487 60.3566 105.72 60.3566 104.569V99.3415H64.5545L64.5298 97.0636ZM86.4328 96.7759C85.8066 96.758 85.1871 96.9045 84.6395 97.1999C84.0919 97.4953 83.6366 97.9287 83.3214 98.4543V97.0636H80.778V108.525H83.3461V102.099C83.3461 100.205 84.1857 99.1497 85.8154 99.1497C86.3647 99.1424 86.9101 99.2402 87.4205 99.4374L88.2107 97.0397C87.6242 96.8359 87.0063 96.7305 86.3834 96.728L86.4328 96.7759ZM53.319 97.9748C51.8654 97.1356 50.194 96.7194 48.5038 96.7759C45.5159 96.7759 43.5652 98.1666 43.5652 100.444C43.5652 102.315 44.9974 103.466 47.6396 103.825L48.8742 103.993C50.2817 104.185 50.9485 104.545 50.9485 105.192C50.9485 106.079 50.0101 106.583 48.2569 106.583C46.8467 106.622 45.4637 106.2 44.3307 105.384L43.096 107.326C44.5919 108.34 46.3837 108.861 48.2075 108.813C51.6152 108.813 53.5907 107.254 53.5907 105.072C53.5907 102.89 52.035 102.003 49.4669 101.643L48.2322 101.476C47.121 101.332 46.232 101.116 46.232 100.349C46.232 99.5813 47.0716 99.0058 48.4791 99.0058C49.7801 99.0205 51.0554 99.359 52.1831 99.9889L53.319 97.9748ZM122.102 96.7759C121.476 96.758 120.857 96.9045 120.309 97.1999C119.761 97.4953 119.306 97.9287 118.991 98.4543V97.0636H116.448V108.525H119.016V102.099C119.016 100.205 119.855 99.1497 121.485 99.1497C122.034 99.1424 122.58 99.2402 123.09 99.4374L123.88 97.0397C123.294 96.8359 122.676 96.7305 122.053 96.728L122.102 96.7759ZM89.0132 102.77C88.9827 103.576 89.1256 104.378 89.4329 105.127C89.7402 105.876 90.2051 106.554 90.7978 107.118C91.3905 107.683 92.098 108.12 92.875 108.404C93.6519 108.687 94.4813 108.81 95.31 108.765C96.852 108.841 98.3673 108.353 99.5573 107.398L98.3226 105.384C97.4348 106.041 96.3523 106.403 95.2359 106.415C94.2867 106.34 93.4011 105.921 92.7554 105.242C92.1097 104.562 91.7512 103.671 91.7512 102.746C91.7512 101.822 92.1097 100.931 92.7554 100.251C93.4011 99.5712 94.2867 99.1523 95.2359 99.0778C96.3523 99.0898 97.4348 99.4514 98.3226 100.109L99.5573 98.0947C98.3673 97.1394 96.852 96.6518 95.31 96.728C94.4813 96.6824 93.6519 96.8052 92.875 97.0888C92.098 97.3723 91.3905 97.8101 90.7978 98.3744C90.2051 98.9386 89.7402 99.6168 89.4329 100.365C89.1256 101.114 88.9827 101.917 89.0132 102.722V102.77ZM113.065 102.77V97.0636H110.496V98.4543C110.06 97.9095 109.497 97.4731 108.853 97.1812C108.209 96.8894 107.503 96.7505 106.792 96.7759C105.155 96.7759 103.585 97.4075 102.427 98.5316C101.269 99.6558 100.619 101.18 100.619 102.77C100.619 104.36 101.269 105.885 102.427 107.009C103.585 108.133 105.155 108.765 106.792 108.765C107.503 108.79 108.209 108.651 108.853 108.359C109.497 108.068 110.06 107.631 110.496 107.086V108.477H113.065V102.77ZM103.508 102.77C103.549 102.096 103.792 101.447 104.208 100.905C104.624 100.363 105.193 99.9509 105.847 99.7193C106.501 99.4876 107.21 99.4467 107.888 99.6016C108.565 99.7564 109.181 100.1 109.66 100.591C110.139 101.081 110.459 101.697 110.582 102.362C110.705 103.028 110.625 103.713 110.352 104.335C110.079 104.956 109.624 105.487 109.044 105.86C108.464 106.234 107.785 106.435 107.089 106.439C106.6 106.445 106.115 106.353 105.665 106.168C105.214 105.983 104.808 105.71 104.472 105.365C104.136 105.021 103.876 104.612 103.711 104.166C103.545 103.719 103.476 103.244 103.508 102.77ZM72.5181 96.7759C70.8808 96.7982 69.3197 97.4511 68.1782 98.591C67.0367 99.7309 66.4083 101.264 66.4312 102.854C66.4541 104.444 67.1265 105.96 68.3004 107.068C69.4743 108.177 71.0537 108.787 72.6909 108.765C74.4673 108.853 76.2142 108.298 77.5926 107.206L76.3579 105.36C75.3829 106.119 74.1751 106.541 72.9255 106.559C72.0766 106.63 71.2327 106.376 70.5733 105.852C69.9139 105.328 69.4909 104.575 69.3944 103.753H78.1605C78.1605 103.442 78.1605 103.13 78.1605 102.794C78.1605 99.1977 75.864 96.7999 72.5551 96.7999L72.5181 96.7759ZM72.5181 99.0058C72.9024 98.9979 73.2845 99.0635 73.6427 99.199C74.0008 99.3345 74.328 99.5372 74.6055 99.7955C74.8829 100.054 75.1053 100.363 75.2598 100.704C75.4143 101.046 75.4979 101.414 75.506 101.787H69.3326C69.3774 101.018 69.7306 100.296 70.3167 99.7758C70.9029 99.2559 71.6753 98.9795 72.4687 99.0058H72.5181ZM136.857 102.794V92.46H134.387V98.4543C133.951 97.9095 133.388 97.4731 132.744 97.1812C132.1 96.8894 131.393 96.7505 130.683 96.7759C129.046 96.7759 127.476 97.4075 126.318 98.5316C125.16 99.6558 124.51 101.18 124.51 102.77C124.51 104.36 125.16 105.885 126.318 107.009C127.476 108.133 129.046 108.765 130.683 108.765C131.393 108.79 132.1 108.651 132.744 108.359C133.388 108.068 133.951 107.631 134.387 107.086V108.477H136.857V102.794ZM141.141 106.858C141.301 106.857 141.461 106.885 141.61 106.942C141.752 106.999 141.882 107.08 141.993 107.182C142.101 107.286 142.189 107.407 142.252 107.542C142.315 107.682 142.347 107.833 142.347 107.985C142.347 108.138 142.315 108.289 142.252 108.429C142.189 108.563 142.101 108.685 141.993 108.789C141.882 108.891 141.752 108.972 141.61 109.028C141.462 109.092 141.302 109.124 141.141 109.124C140.907 109.123 140.678 109.056 140.481 108.933C140.285 108.81 140.128 108.635 140.03 108.429C139.968 108.289 139.936 108.138 139.936 107.985C139.936 107.833 139.968 107.682 140.03 107.542C140.093 107.407 140.18 107.286 140.289 107.182C140.4 107.08 140.53 106.999 140.672 106.942C140.832 106.88 141.005 106.852 141.178 106.858H141.141ZM141.141 108.885C141.264 108.885 141.386 108.861 141.499 108.813C141.605 108.767 141.701 108.702 141.783 108.621C141.937 108.457 142.023 108.243 142.023 108.021C142.023 107.799 141.937 107.586 141.783 107.422C141.702 107.341 141.605 107.276 141.499 107.23C141.386 107.182 141.264 107.158 141.141 107.158C141.018 107.159 140.896 107.183 140.783 107.23C140.672 107.274 140.571 107.34 140.486 107.422C140.332 107.586 140.246 107.799 140.246 108.021C140.246 108.243 140.332 108.457 140.486 108.621C140.571 108.703 140.672 108.768 140.783 108.813C140.907 108.865 141.042 108.889 141.178 108.885H141.141ZM141.215 107.458C141.33 107.452 141.444 107.486 141.536 107.554C141.574 107.584 141.604 107.623 141.623 107.667C141.642 107.71 141.65 107.758 141.647 107.806C141.649 107.845 141.642 107.885 141.627 107.922C141.612 107.959 141.59 107.993 141.561 108.021C141.489 108.084 141.398 108.122 141.301 108.129L141.659 108.525H141.375L141.042 108.129H140.931V108.525H140.696V107.47L141.215 107.458ZM140.943 107.662V107.949H141.215C141.263 107.963 141.315 107.963 141.363 107.949C141.372 107.933 141.376 107.914 141.376 107.896C141.376 107.877 141.372 107.858 141.363 107.842C141.372 107.825 141.376 107.806 141.376 107.788C141.376 107.769 141.372 107.75 141.363 107.734C141.315 107.72 141.263 107.72 141.215 107.734L140.943 107.662ZM127.362 102.794C127.403 102.12 127.646 101.471 128.062 100.929C128.477 100.387 129.047 99.9749 129.701 99.7433C130.355 99.5116 131.064 99.4707 131.742 99.6256C132.419 99.7804 133.035 100.124 133.514 100.615C133.993 101.105 134.313 101.721 134.436 102.386C134.559 103.052 134.479 103.737 134.206 104.359C133.932 104.98 133.478 105.511 132.898 105.884C132.318 106.258 131.638 106.459 130.942 106.463C130.454 106.469 129.969 106.377 129.518 106.192C129.068 106.007 128.662 105.734 128.326 105.389C127.989 105.045 127.73 104.636 127.564 104.19C127.398 103.743 127.33 103.268 127.362 102.794ZM40.6513 102.794V97.0636H38.0832V98.4543C37.6471 97.9095 37.0838 97.4731 36.4398 97.1812C35.7957 96.8894 35.0895 96.7505 34.3792 96.7759C32.742 96.7759 31.1718 97.4075 30.014 98.5316C28.8563 99.6558 28.2059 101.18 28.2059 102.77C28.2059 104.36 28.8563 105.885 30.014 107.009C31.1718 108.133 32.742 108.765 34.3792 108.765C35.0895 108.79 35.7957 108.651 36.4398 108.359C37.0838 108.068 37.6471 107.631 38.0832 107.086V108.477H40.6513V102.794ZM31.095 102.794C31.136 102.12 31.3792 101.471 31.7948 100.929C32.2104 100.387 32.7802 99.9749 33.434 99.7433C34.0879 99.5116 34.7972 99.4707 35.4747 99.6256C36.1521 99.7804 36.7682 100.124 37.2469 100.615C37.7257 101.105 38.0462 101.721 38.1691 102.386C38.292 103.052 38.2119 103.737 37.9386 104.359C37.6653 104.98 37.2108 105.511 36.631 105.884C36.0513 106.258 35.3715 106.459 34.6756 106.463C34.1846 106.472 33.6971 106.382 33.2438 106.199C32.7905 106.016 32.3814 105.743 32.0424 105.398C31.7034 105.053 31.442 104.644 31.2747 104.195C31.1073 103.747 31.0377 103.27 31.0703 102.794H31.095Z" fill="#231F20"/>
<path d="M91.3587 9.72461H52.4668V77.5943H91.3587V9.72461Z" fill="#FF5F00"/>
<path d="M54.9361 43.6663C54.9289 37.129 56.4537 30.6759 59.395 24.7955C62.3362 18.9152 66.6169 13.7617 71.9128 9.72553C65.3556 4.7216 57.4809 1.60995 49.1887 0.746218C40.8965 -0.117514 32.5213 1.30152 25.0203 4.84113C17.5193 8.38075 11.1952 13.8981 6.77077 20.7627C2.34631 27.6273 0 35.5621 0 43.6603C0 51.7585 2.34631 59.6933 6.77077 66.5579C11.1952 73.4224 17.5193 78.9398 25.0203 82.4795C32.5213 86.0191 40.8965 87.4381 49.1887 86.5744C57.4809 85.7106 65.3556 82.599 71.9128 77.5951C66.6185 73.5601 62.3389 68.4086 59.3977 62.5305C56.4565 56.6523 54.9308 50.2015 54.9361 43.6663Z" fill="#EB001B"/>
<path d="M143.833 43.6654C143.833 51.7641 141.486 59.6994 137.061 66.5642C132.636 73.4291 126.311 78.9463 118.809 82.4855C111.307 86.0246 102.931 87.4427 94.6382 86.5777C86.3455 85.7127 78.4707 82.5996 71.9141 77.5941C77.2062 73.5555 81.4846 68.4026 84.4266 62.5242C87.3686 56.6457 88.8973 50.1952 88.8973 43.6594C88.8973 37.1235 87.3686 30.673 84.4266 24.7946C81.4846 18.9161 77.2062 13.7632 71.9141 9.72465C78.4707 4.71916 86.3455 1.606 94.6382 0.741031C102.931 -0.12394 111.307 1.29418 118.809 4.83328C126.311 8.37239 132.636 13.8897 137.061 20.7545C141.486 27.6193 143.833 35.5546 143.833 43.6534V43.6654Z" fill="#F79E1B"/>
<path d="M139.584 70.4002V69.0094H140.165V68.7217H138.695V69.0094H139.325V70.4002H139.584ZM142.436 70.4002V68.7217H141.992L141.473 69.9206L140.955 68.7217H140.56V70.4002H140.881V69.1413L141.362 70.2323H141.696L142.177 69.1413V70.4121L142.436 70.4002Z" fill="#F79E1B"/>
</svg>
